<?xml version="1.0" encoding="UTF-8"?>
<svg width="384px" height="448px" viewBox="0 0 384 448" version="1.1" xmlns="http://www.w3.org/2000/svg" xmlns:xlink="http://www.w3.org/1999/xlink">
    <title>Group</title>
    <g id="Page-1" stroke="none" stroke-width="1" fill="none" fill-rule="evenodd">
        <g id="Group">
            <path d="M240.941176,384 L352.003017,384 C369.64758,384 384,369.674463 384,352.003017 L384,31.9969832 C384,14.3524196 369.674463,0 352.003017,0 L31.9969832,0 C14.3524196,0 0,14.3255373 0,31.9969832 L0,352.003017 C0,369.64758 14.3255373,384 31.9969832,384 L143.058824,384 L192,448 L240.941176,384 L240.941176,384 Z" id="Rectangle-2-Copy-19" fill="#BD1C2B"></path>
            <path d="M304,319.790403 C321.673112,319.790403 336,305.510435 336,287.895201 C336,270.279968 321.673112,256 304,256 C286.326888,256 272,270.279968 272,287.895201 C272,305.510435 286.326888,319.790403 304,319.790403 Z" id="Path" fill="#FFFFFF"></path>
            <path d="M112.129807,64 L112.129807,176.030906 C112.129807,176.030907 128.173076,144.049455 160,144.04945 C192,144.049446 224.432693,160 224.43269,209.740579 L224.43269,320 L176.302883,320 L176.302883,224.055632 C176.302883,198 160,188 144,192 C128,196 112.129807,213 112.129807,248.04636 L112.129807,320 L64,320 L64,64" id="Path" fill="#FFFFFF"></path>
        </g>
    </g>
</svg>