<?xml version="1.0" ?><svg
  height="30px"
  id="Image"
  style="enable-background: new 0 0 30 30"
  version="1.1"
  viewBox="0 0 30 30"
  width="30px"
  xml:space="preserve"
  xmlns="http://www.w3.org/2000/svg"
  xmlns:xlink="http://www.w3.org/1999/xlink"
>
  <rect width="100%" height="100%" fill="#d1fae5"/>
  <g>
    <path
      d="M8.918,15.118   L8.063,15.96c-0.194,0.192-0.304,0.451-0.304,0.722v2.515c0,0.271-0.109,0.53-0.303,0.722L6.481,20.88l0.639,0.63l2.13,2.1   l0.639,0.63l0.975-0.961c0.194-0.192,0.458-0.299,0.732-0.299h2.55c0.274,0,0.538-0.107,0.732-0.299l0.854-0.843"
      style="
        fill: none;
        stroke: #000000;
        stroke-width: 1.4;
        stroke-linecap: round;
        stroke-linejoin: round;
        stroke-miterlimit: 10;
      "
    />
    <polyline
      points="7.12,21.51    3.5,25.08 7.333,25.5 9.25,23.609  "
      style="
        fill: none;
        stroke: #000000;
        stroke-width: 1.4;
        stroke-linecap: round;
        stroke-linejoin: round;
        stroke-miterlimit: 10;
      "
    />
    <path
      d="M12.303,18.499   l3.447,3.354c0.206,0.2,0.49,0.303,0.779,0.285c0.29-0.019,0.558-0.158,0.734-0.383l8.98-10.734   c0.379-0.482,0.332-1.163-0.108-1.591l-2.33-2.273L21.5,4.859c-0.435-0.435-1.125-0.48-1.613-0.107L9.001,13.607   c-0.228,0.174-0.369,0.438-0.389,0.724c-0.018,0.286,0.087,0.566,0.29,0.769L12.303,18.499z"
      style="
        fill: none;
        stroke: #000000;
        stroke-width: 1.4;
        stroke-linecap: round;
        stroke-linejoin: round;
        stroke-miterlimit: 10;
      "
    />
    <line
      style="
        fill: none;
        stroke: #000000;
        stroke-width: 1.4;
        stroke-linecap: round;
        stroke-linejoin: round;
        stroke-miterlimit: 10;
      "
      x1="14.5"
      x2="19.5"
      y1="13.521"
      y2="8.59"
    />
    <line
      style="
        fill: none;
        stroke: #000000;
        stroke-width: 1.4;
        stroke-linecap: round;
        stroke-linejoin: round;
        stroke-miterlimit: 10;
      "
      x1="17.5"
      x2="22.5"
      y1="16.479"
      y2="11.549"
    />
  </g>
</svg>
