<?xml version="1.0" encoding="UTF-8" standalone="no"?>
<svg
   xmlns:dc="http://purl.org/dc/elements/1.1/"
   xmlns:cc="http://creativecommons.org/ns#"
   xmlns:rdf="http://www.w3.org/1999/02/22-rdf-syntax-ns#"
   xmlns:svg="http://www.w3.org/2000/svg"
   xmlns="http://www.w3.org/2000/svg"
   xmlns:xlink="http://www.w3.org/1999/xlink"
   xmlns:sodipodi="http://sodipodi.sourceforge.net/DTD/sodipodi-0.dtd"
   xmlns:inkscape="http://www.inkscape.org/namespaces/inkscape"
   inkscape:export-ydpi="96"
   inkscape:export-xdpi="96"
   inkscape:export-filename="/Users/pha/Downloads/icon.png"
   inkscape:version="1.0 (4035a4f, 2020-05-01)"
   height="495.60727"
   width="495.60727"
   sodipodi:docname="icon.svg"
   id="svg837"
   version="1.1"
   viewBox="0 0 495.60727 495.60727">
  <metadata
     id="metadata843">
    <rdf:RDF>
      <cc:Work
         rdf:about="">
        <dc:format>image/svg+xml</dc:format>
        <dc:type
           rdf:resource="http://purl.org/dc/dcmitype/StillImage" />
        <dc:title></dc:title>
      </cc:Work>
    </rdf:RDF>
  </metadata>
  <defs
     id="defs841">
    <linearGradient
       id="linearGradient896"
       inkscape:collect="always">
      <stop
         id="stop892"
         offset="0"
         style="stop-color:#fde047;stop-opacity:1;" />
      <stop
         style="stop-color:#fde047;stop-opacity:1"
         offset="0.46000615"
         id="stop900" />
      <stop
         id="stop894"
         offset="1"
         style="stop-color:#f59e0b;stop-opacity:0.85020238" />
    </linearGradient>
    <linearGradient
       gradientTransform="translate(-5.0676629,15.703969)"
       gradientUnits="userSpaceOnUse"
       y2="423.16608"
       x2="448.63596"
       y1="140.88959"
       x1="1.254563"
       id="linearGradient898"
       xlink:href="#linearGradient896"
       inkscape:collect="always" />
  </defs>
  <sodipodi:namedview
     inkscape:snap-page="false"
     inkscape:current-layer="g835"
     inkscape:window-maximized="0"
     inkscape:window-y="166"
     inkscape:window-x="2079"
     inkscape:cy="292.3178"
     inkscape:cx="335.68422"
     inkscape:zoom="1.247365"
     lock-margins="true"
     fit-margin-bottom="0"
     fit-margin-right="0"
     fit-margin-left="0"
     fit-margin-top="0"
     showgrid="false"
     id="namedview839"
     inkscape:window-height="957"
     inkscape:window-width="1695"
     inkscape:pageshadow="2"
     inkscape:pageopacity="0"
     guidetolerance="10"
     gridtolerance="10"
     objecttolerance="10"
     borderopacity="1"
     bordercolor="#666666"
     pagecolor="#ffffff"
     inkscape:document-rotation="0" />
  <rect
     transform="rotate(-4)"
     ry="124.20166"
     y="24.485905"
     x="-10.085911"
     height="480"
     width="480"
     id="rect840"
     style="font-variation-settings:'wght' 700;fill:url(#linearGradient898);fill-opacity:1;stroke:#000000;stroke-width:0;stroke-linecap:round;paint-order:markers fill stroke" />
  <g
     style="fill:#292524;fill-opacity:1"
     id="g835"
     transform="matrix(1.1189845,0.41169264,-0.44620181,1.2127808,52.915143,-114.85627)">
    <!-- <path
       d="M322.92,363.59a16.27,16.27,0,0,0-10.77-8.46l-.17,0c-23.11-6.31-45.14-9.5-65.49-9.5-44.82,0-72.15,15.56-84.45,24.84a32.81,32.81,0,0,1-19.91,6.68,33.32,33.32,0,0,1-29.87-18.77L46.67,221.94a7.44,7.44,0,0,0-11.58-2.39l-.17.14a16.48,16.48,0,0,0-4,19.61l94.43,195.75a16.25,16.25,0,0,0,26.79,3.69c56.59-63.15,138.33-60.33,168.87-56.83a6.46,6.46,0,0,0,6.5-9.34Z"
       id="path835" /> -->
    <!-- <path
       d="M475.18,278.79A7.44,7.44,0,0,0,481.37,267l-10.46-14.69a6.51,6.51,0,0,0-8.79-1.77,32.06,32.06,0,0,1-11.42,4.63c-31.45,6.08-60.35,22.79-85.91,49.66-19.72,20.74-29.87,40-29.94,40.16l0,0a4.63,4.63,0,0,0-.08,4.24l7.7,15.21a7.13,7.13,0,0,0,11.86,1.32c15.72-19,48.92-44.35,114.58-45.06a10,10,0,0,0,8.36-15.3l-15.83-25.17S465.41,278.6,475.18,278.79Z"
       id="path837" /> -->
    <path
       style="fill:#292524;fill-opacity:1;stroke-width:0.925478"
       d="m 301.0567,317.40867 -84.84787,-167.5116 a 9.5231735,9.5231735 0 0 0 -6.47835,-5.00685 C 183.2803,139.143 126.3171,135.04314 76.091396,187.19385 a 12.336628,12.336628 0 0 0 -2.258167,13.88217 l 67.430351,140.20999 a 12.271846,12.271846 0 0 0 18.45404,4.48858 c 18.94454,-14.28939 62.38651,-36.78777 136.24895,-21.64694 a 4.6921761,4.6921761 0 0 0 5.09013,-6.71898 z M 130.99076,189.17437 c 1.25866,-0.92548 31.2349,-23.24803 68.27256,-12.25333 a 7.875822,7.875822 0 1 1 -4.48857,15.09455 c -29.4765,-8.75503 -54.0387,9.52317 -54.27932,9.70828 a 7.875822,7.875822 0 0 1 -9.51392,-12.5495 z m 10.27282,62.45129 A 7.875822,7.875822 0 0 1 130.22262,240.3996 c 1.44375,-1.41597 36.01037,-34.65916 88.72562,-21.42482 a 7.875822,7.875822 0 1 1 -3.84073,15.2704 c -44.22862,-11.10575 -73.54778,17.10284 -73.84393,17.38048 z m 106.63363,23.55343 a 7.8850769,7.8850769 0 0 1 -9.45839,5.88605 c -36.62119,-8.54217 -60.88723,8.4126 -61.12785,8.58843 a 7.8778918,7.8778918 0 0 1 -9.16225,-12.81787 c 1.22164,-0.86995 30.38347,-21.23048 73.86245,-11.10574 a 7.8850769,7.8850769 0 0 1 5.88604,9.44913 z"
       id="path839" />
    <path
       sodipodi:nodetypes="ccccccccccsccscccccsccccccccccsc"
       style="fill:#292524;fill-opacity:1;stroke-width:0.925478"
       d="M 441.05533,215.69398 373.08691,79.568996 c -3.50437,-5.915938 -9.7446,-9.677464 -16.61234,-10.013677 -22.5629,4.422436 -82.73649,11.231633 -124.21644,64.752081 -2.22673,2.89972 -2.58688,6.8217 -0.92548,10.07846 l 83.6725,165.20716 c 1.60359,3.17044 6.01531,3.47031 8.03316,0.54604 16.28841,-23.42386 52.95588,-65.9496 110.28928,-77.03684 7.90121,-1.57105 11.86236,-10.49433 7.72774,-17.40824 z M 286.65774,165.77366 c -2.71838,3.46607 -7.75101,4.02881 -11.16782,1.24877 -3.4168,-2.78004 -3.8893,-7.82194 -1.04849,-11.1884 0.69411,-0.84219 30.25002,-32.18797 62.80429,-39.06627 4.10424,-1.43076 8.59125,0.73634 10.02233,4.84046 1.43108,4.10411 -0.73564,8.59131 -4.83964,10.02273 -21.61068,3.72331 -55.63183,33.92987 -55.77067,34.14271 z m 12.12378,40.16577 c -6.08036,-0.49592 -9.32442,-7.40695 -5.82126,-12.40141 0.8792,-1.24014 31.64705,-35.07628 68.31526,-39.4752 4.22284,-0.82558 8.32666,1.89073 9.21665,6.10046 0.88998,4.20975 -1.76331,8.35458 -5.95896,9.30876 -34.68537,5.12329 -58.56998,32.92281 -58.74582,33.17269 -1.60684,2.234 -4.26212,3.46869 -7.00587,3.25768 z m 84.0242,4.73845 c -41.94269,1.56406 -54.8161,33.48381 -55.34362,34.83502 -1.19693,3.10113 -4.21013,5.11857 -7.53339,5.04386 -0.89954,-0.0191 -1.78889,-0.19455 -2.62837,-0.51827 -4.04391,-1.53804 -6.08354,-6.05586 -4.56261,-10.10623 0.66635,-1.75842 16.8067,-43.0255 69.47567,-44.98751 4.43372,-0.3029 8.23985,3.12031 8.40704,7.56121 0.16718,4.44091 -3.37079,8.14059 -7.81472,8.17192 z"
       id="path841" />
  </g>
</svg>
